# xmcd CD database file
#
# Track frame offsets:
#	150
#	13273
#	23560
#	38409
#	51332
#	62456
#	70743
#	86613
#	97780
#	110447
#	120469
#	133243
#	146894
#	163284
#	176559
#	187960
#
# Disc length: 2665 seconds
#
# Revision: 0
# Processed by: cddbd v1.5.1PL0 Copyright (c) Steve Scherf et al.
# Submitted via: CDex 1.50beta10
#
DISCID=d40a6710
DTITLE=Slim Whitman - Tennessee Waltz (Going for a Song)
DYEAR=2000
DGENRE=Country
TTITLE0=Red Sails in the Sunset
TTITLE1=Anytime
TTITLE2=Mockin' Bird Hill
TTITLE3=Release Me
TTITLE4=The Wayward Wind
TTITLE5=Have You Every Been Lonely
TTITLE6=Down in the Valley
TTITLE7=Singing the Blues
TTITLE8=Half as Much
TTITLE9=Cara Mia
TTITLE10=Tennessee Waltz
TTITLE11=You are My Sunshine
TTITLE12=Three Bells
TTITLE13=Till I Waltz Again With You
TTITLE14=It is No Secret
TTITLE15=Now is the Hour
EXTD=YEAR: 2000
EXTT0=
EXTT1=
EXTT2=
EXTT3=
EXTT4=
EXTT5=
EXTT6=
EXTT7=
EXTT8=
EXTT9=
EXTT10=
EXTT11=
EXTT12=
EXTT13=
EXTT14=
EXTT15=
PLAYORDER=
